Coordinates
version=1
nRows=24
nColumns=34
inDegrees=no

Units are S.I. units (second, meters, Newtons, ...)
If the header above contains a line with 'inDegrees', this indicates whether rotational values are in degrees (yes) or radians (no).

endheader
time	pelvis_tilt	pelvis_list	pelvis_rotation	pelvis_tx	pelvis_ty	pelvis_tz	hip_flexion_r	hip_adduction_r	hip_rotation_r	knee_angle_r	ankle_angle_r	subtalar_angle_r	mtp_angle_r	hip_flexion_l	hip_adduction_l	hip_rotation_l	knee_angle_l	ankle_angle_l	subtalar_angle_l	mtp_angle_l	lumbar_extension	lumbar_bending	lumbar_rotation	arm_flex_r	arm_add_r	arm_rot_r	elbow_flex_r	pro_sup_r	arm_flex_l	arm_add_l	arm_rot_l	elbow_flex_l	pro_sup_l
0.46	0.022515	-0.130654	-0.0498611	0.404918	1.04299	-0.176881	-0.191008	0.181879	-0.0563998	0.0962947	0.315394	0.289875	-0.0230315	0.489055	-0.174315	-0.112483	0.411019	-0.0524593	-0.0384899	-0.0230328	-0.138329	0.133486	0.114886	0.147749	-0.244832	0.0289713	0.767375	1.67939	-0.256043	-0.141519	0.325131	0.517831	1.46872
0.47	0.0243997	-0.121939	-0.0529082	0.41754	1.04172	-0.177407	-0.200315	0.167245	-0.0793601	0.110247	0.335524	0.323504	-0.0230293	0.467749	-0.161142	-0.130465	0.328511	-0.070938	0.000508036	-0.0230305	-0.140313	0.123623	0.118252	0.152703	-0.245071	0.0299115	0.775051	1.68023	-0.261518	-0.140989	0.328257	0.514693	1.47113
0.48	0.0267833	-0.112652	-0.0563378	0.430339	1.04047	-0.178011	-0.209523	0.151191	-0.102897	0.125615	0.354998	0.357537	-0.0230271	0.445616	-0.146486	-0.143629	0.25115	-0.0813918	0.0389361	-0.0230282	-0.142523	0.113219	0.121861	0.156888	-0.245399	0.0311743	0.782392	1.6812	-0.266386	-0.140234	0.330906	0.511399	1.47378
0.49	0.0295859	-0.102945	-0.0599319	0.44331	1.03924	-0.178703	-0.218638	0.134039	-0.126146	0.142172	0.373285	0.390675	-0.0230248	0.423724	-0.130691	-0.150641	0.181514	-0.0827083	0.074875	-0.0230259	-0.144807	0.10246	0.125492	0.160295	-0.245798	0.0328272	0.789303	1.68226	-0.270642	-0.139275	0.333145	0.507964	1.47643
0.5	0.0327157	-0.0929742	-0.0634578	0.456454	1.03805	-0.179492	-0.227682	0.116166	-0.14822	0.159648	0.389823	0.42159	-0.0230226	0.403086	-0.114225	-0.151015	0.121901	-0.0748177	0.106721	-0.0230235	-0.147015	0.0915277	0.1289	0.162914	-0.246225	0.0349293	0.795689	1.68332	-0.274285	-0.138161	0.33505	0.504408	1.4789
0.51	0.0360964	-0.0828609	-0.0667086	0.469776	1.0369	-0.180376	-0.236697	0.0979205	-0.168358	0.177785	0.404063	0.449144	-0.0230204	0.384465	-0.0975688	-0.145208	0.0739596	-0.058817	0.133353	-0.0230212	-0.14903	0.0805513	0.13185	0.164735	-0.246619	0.0375261	0.801466	1.68432	-0.277319	-0.136961	0.33668	0.500749	1.48101
0.52	0.0397018	-0.0726676	-0.0695432	0.483275	1.03581	-0.181342	-0.245744	0.0795393	-0.18605	0.196385	0.415513	0.472569	-0.0230182	0.368194	-0.0810904	-0.134477	0.038339	-0.0369476	0.154125	-0.0230189	-0.150794	0.06957	0.134145	0.165749	-0.246908	0.0406446	0.806574	1.68518	-0.279764	-0.135746	0.338057	0.497011	1.4827
0.53	0.043574	-0.062386	-0.0719166	0.496969	1.03481	-0.182373	-0.254887	0.061113	-0.201073	0.215355	0.42374	0.491534	-0.023016	0.354071	-0.0649709	-0.120544	0.0144859	-0.0123876	0.168732	-0.0230166	-0.152311	0.0585268	0.135651	0.165947	-0.247021	0.0442889	0.810978	1.68585	-0.281654	-0.13458	0.339142	0.493223	1.48394
0.54	0.0477932	-0.0519798	-0.0738879	0.510868	1.03397	-0.183444	-0.264142	0.0426167	-0.213397	0.234728	0.428352	0.506012	-0.0230137	0.341429	-0.0492241	-0.10522	0.000762422	0.0111612	0.177053	-0.0230143	-0.153627	0.0473079	0.136313	0.165326	-0.246894	0.0484361	0.814667	1.6863	-0.283037	-0.133512	0.339842	0.489437	1.48479
0.55	0.052442	-0.0414063	-0.075596	0.52498	1.0333	-0.184526	-0.273444	0.0239689	-0.223064	0.254686	0.428971	0.516101	-0.0230115	0.329372	-0.0337693	-0.0900914	-0.00513547	0.0300455	0.179052	-0.0230119	-0.154829	0.0357961	0.136155	0.163902	-0.246477	0.0530295	0.817644	1.68651	-0.283955	-0.132567	0.34002	0.485728	1.48535
0.56	0.0575854	-0.0306373	-0.0772229	0.539294	1.03285	-0.185594	-0.282606	0.00508096	-0.230107	0.275572	0.425219	0.52189	-0.0230093	0.317026	-0.018504	-0.0763334	-0.00569928	0.0412433	0.17478	-0.0230096	-0.156031	0.0239078	0.135259	0.161711	-0.245736	0.0579742	0.819917	1.68653	-0.284431	-0.131758	0.339523	0.482194	1.48572
0.57	0.0632526	-0.0196699	-0.0789553	0.553785	1.03262	-0.18663	-0.291279	-0.0141181	-0.234533	0.297899	0.416735	0.523398	-0.0230071	0.303732	-0.00334854	-0.0646544	-0.00320822	0.0428247	0.164469	-0.0230073	-0.157349	0.0116064	0.133739	0.158824	-0.244642	0.0631371	0.821484	1.6864	-0.284454	-0.13109	0.338216	0.478954	1.48602
0.58	0.06942	-0.00852041	-0.0809506	0.568402	1.03263	-0.187618	-0.298945	-0.0336818	-0.236338	0.322332	0.403206	0.520575	-0.0230049	0.28915	0.0117421	-0.0553392	0.000531922	0.0342067	0.148632	-0.023005	-0.158873	-0.00110797	0.131711	0.15534	-0.243171	0.0683545	0.822326	1.68622	-0.283977	-0.130578	0.336009	0.476138	1.48637
0.59	0.0759951	0.00279811	-0.083311	0.58308	1.03288	-0.188554	-0.30492	-0.0536587	-0.235548	0.349657	0.384409	0.513355	-0.0230026	0.273289	0.0267926	-0.0483527	0.00430379	0.0161731	0.128139	-0.0230027	-0.160645	-0.0142207	0.129262	0.151379	-0.241292	0.0734474	0.822407	1.68609	-0.282922	-0.130252	0.332881	0.473882	1.48686
0.6	0.0828043	0.014301	-0.08607	0.597739	1.03335	-0.189435	-0.308378	-0.0741062	-0.232244	0.380716	0.360248	0.501708	-0.0230004	0.256472	0.0418345	-0.0434619	0.00747093	-0.00931851	0.10421	-0.0230003	-0.162634	-0.0277275	0.126438	0.147074	-0.238975	0.0782393	0.821679	1.68614	-0.281188	-0.130171	0.328887	0.472317	1.48758
0.61	0.0895773	0.0260554	-0.0891934	0.6123	1.03402	-0.190268	-0.30841	-0.0950898	-0.226566	0.416325	0.330782	0.485685	-0.0229982	0.239268	0.0569254	-0.0403455	0.00988441	-0.039491	0.0783196	-0.022998	-0.16473	-0.0416483	0.123244	0.142556	-0.236184	0.0825759	0.820091	1.68649	-0.278667	-0.130423	0.32416	0.47157	1.4886
0.62	0.0959138	0.0381658	-0.0925985	0.626675	1.03484	-0.191062	-0.304101	-0.116666	-0.218689	0.457181	0.296222	0.46543	-0.022996	0.22239	0.0721578	-0.038674	0.0117425	-0.071187	0.0520482	-0.0229957	-0.16676	-0.0560292	0.119656	0.137938	-0.232894	0.0863389	0.817603	1.68725	-0.275252	-0.131122	0.318899	0.471751	1.48994
0.63	0.101415	0.0507067	-0.0961824	0.640785	1.03577	-0.191824	-0.294593	-0.138846	-0.208779	0.503746	0.25692	0.44117	-0.0229938	0.206614	0.0876471	-0.0381578	0.0134169	-0.101318	0.0269062	-0.0229934	-0.168465	-0.0709356	0.115646	0.133304	-0.229094	0.0894554	0.814193	1.68847	-0.270855	-0.132396	0.313357	0.472951	1.49164
0.64	0.105717	0.0637403	-0.0998389	0.654568	1.03677	-0.19256	-0.279183	-0.161538	-0.19696	0.556154	0.213344	0.413192	-0.0229915	0.192652	0.103469	-0.0385655	0.0152924	-0.127257	0.00418016	-0.022991	-0.169531	-0.0863882	0.111217	0.128705	-0.224795	0.0919003	0.809867	1.69014	-0.265411	-0.134373	0.307816	0.475232	1.49367
0.65	0.108503	0.0772524	-0.103489	0.66798	1.03777	-0.193271	-0.25743	-0.184494	-0.183298	0.614137	0.166057	0.381812	-0.0229893	0.181016	0.119617	-0.0397148	0.0176315	-0.147124	-0.0151706	-0.0229887	-0.169653	-0.102322	0.106424	0.124155	-0.220038	0.0936922	0.804657	1.69221	-0.258889	-0.137159	0.302569	0.478618	1.49597
0.66	0.109552	0.0911111	-0.107095	0.68101	1.03876	-0.193952	-0.229228	-0.207281	-0.167822	0.676998	0.115734	0.347363	-0.0229871	0.171873	0.13596	-0.041439	0.0204721	-0.159942	-0.0305607	-0.0229864	-0.16857	-0.118549	0.10138	0.119638	-0.214897	0.0948844	0.798622	1.69454	-0.251298	-0.140823	0.297894	0.483091	1.49846
0.67	0.108797	0.105039	-0.110658	0.693671	1.0397	-0.19459	-0.194871	-0.229291	-0.150575	0.743627	0.0631878	0.310171	-0.0229849	0.165008	0.152233	-0.0435529	0.0235805	-0.165636	-0.0417925	-0.0229841	-0.166125	-0.134747	0.0962426	0.115115	-0.209473	0.095556	0.791841	1.69694	-0.242681	-0.145387	0.29403	0.488588	1.50102
0.68	0.106371	0.118654	-0.114198	0.705998	1.04058	-0.195169	-0.155036	-0.249796	-0.131677	0.812593	0.00941123	0.270536	-0.0229827	0.159888	0.168063	-0.0458229	0.0264803	-0.164918	-0.0490527	-0.0229818	-0.162283	-0.150488	0.0911791	0.110543	-0.203894	0.0958042	0.784407	1.69924	-0.233109	-0.150823	0.291142	0.495006	1.50355
0.69	0.102515	0.131544	-0.117737	0.718036	1.04142	-0.195674	-0.110733	-0.268023	-0.111378	0.882277	-0.0443627	0.228727	-0.0229804	0.155787	0.183005	-0.0479607	0.0285963	-0.159042	-0.0528549	-0.0229794	-0.157163	-0.165269	0.0863255	0.105879	-0.198301	0.0957358	0.776421	1.70127	-0.222667	-0.157054	0.2893	0.502216	1.50599
